<svg width="192" height="80" viewBox="0 0 192 80" fill="none" xmlns="http://www.w3.org/2000/svg">
<path d="M72.5664 41.2733C72.8949 44.736 76.0839 46.7617 79.5057 46.7617C82.6673 46.7617 85.9522 45.0235 85.9522 41.1227C85.9522 39.4392 85.1857 36.8798 81.1755 35.6069L79.273 34.9225C77.4937 34.2792 77.3431 33.4033 77.3431 32.9242C77.3431 31.665 78.3012 31.186 79.533 31.186C80.2448 31.186 81.5587 31.405 82.3115 33.2938L85.5416 31.6103C84.433 28.9277 82.3115 27.5453 79.533 27.5453C76.0155 27.5453 73.4697 29.6257 73.4697 32.979C73.4697 34.5119 74.0583 37.0987 78.0412 38.5085L79.9984 39.2065C81.7093 39.8088 82.0788 40.4794 82.0788 41.1911C82.0788 42.5872 80.8196 43.1073 79.3825 43.1073C77.699 43.1073 76.604 42.2313 76.1113 40.5615L72.5664 41.2733Z" fill="white"/>
<path d="M88.1695 46.4606H92.0018V39.1518C92.0018 37.263 92.7409 35.7985 94.5202 35.7985C96.2858 35.7985 96.9565 37.2356 96.9565 39.1244V46.4606H100.789V39.0423C100.789 35.5521 99.7897 32.5273 96.0805 32.5273C94.4655 32.5273 93.0968 33.0748 92.0018 34.6761V27.2305H88.1695V46.4606Z" fill="white"/>
<path d="M102.609 39.6308C102.609 43.9148 106.031 46.7617 109.863 46.7617C113.696 46.7617 117.104 43.8874 117.104 39.6308C117.104 35.4016 113.696 32.5273 109.863 32.5273C106.031 32.5273 102.609 35.3742 102.609 39.6308ZM106.346 39.6308C106.346 37.4957 107.988 35.9217 109.863 35.9217C111.793 35.9217 113.381 37.523 113.381 39.6308C113.381 41.7523 111.793 43.3536 109.863 43.3536C107.988 43.3536 106.346 41.7797 106.346 39.6308Z" fill="white"/>
<path d="M129.655 39.6856C129.655 41.7797 128.464 43.5453 126.37 43.5453C124.276 43.5453 122.811 42.026 122.811 39.4666C122.811 37.0166 124.385 35.7437 126.26 35.7437C128.395 35.7437 129.655 37.4683 129.655 39.6856ZM122.921 52.6881V44.5992C123.824 45.8584 125.357 46.7617 127.136 46.7617C131.242 46.7617 133.487 43.5453 133.487 39.7129C133.487 35.7164 131.064 32.5273 127.054 32.5273C125.11 32.5273 123.865 33.4033 122.921 34.813V32.8147H119.088V52.6881H122.921Z" fill="white"/>
<path d="M186.77 44.476C186.77 45.7762 187.783 46.7617 189.193 46.7617C190.548 46.7617 191.629 45.7762 191.629 44.476C191.629 43.1073 190.548 42.1355 189.193 42.1355C187.783 42.1355 186.77 43.1073 186.77 44.476Z" fill="white"/>
<path d="M140.043 29.4614H137.087L136.498 32.8147H134.226V35.9217H136.211V41.9439C136.211 45.8857 138.442 46.7617 140.782 46.7617C143.889 46.7617 145.175 44.7087 145.175 42.683C145.175 42.1766 145.107 41.5744 144.874 41.0679H141.836C141.918 41.2732 142.014 41.8344 142.014 42.2313C142.014 42.8746 141.754 43.5179 141.015 43.5179C140.276 43.5179 140.043 42.9294 140.043 42.3134V35.9217H143.684V32.8147H140.043V29.4614Z" fill="white"/>
<path d="M150.322 32.8147H146.599V46.4606H150.431V39.0423C150.431 37.2356 151.868 36.3596 153.306 36.3596C153.689 36.3596 154.387 36.4007 154.921 36.5376V32.6231C154.51 32.5547 154.387 32.5273 153.949 32.5273C152.813 32.5273 150.732 33.3211 150.322 35.7985V32.8147Z" fill="white"/>
<path d="M162.667 35.7437C163.94 35.7437 165.665 36.4007 165.925 38.1663H159.328C159.807 36.3323 161.422 35.7437 162.667 35.7437ZM166.924 41.8891C166.007 42.8199 164.638 43.5179 163.283 43.5179C160.806 43.5179 159.328 42.2587 159.246 40.5615H169.853C169.853 35.1278 166.335 32.5273 162.708 32.5273C158.479 32.5273 155.441 35.689 155.441 39.7129C155.441 43.5863 158.11 46.7617 162.996 46.7617C164.775 46.7617 167.294 46.2005 169.141 44.0654L166.924 41.8891Z" fill="white"/>
<path d="M170.784 39.6308C170.784 43.9148 174.205 46.7617 178.038 46.7617C181.856 46.7617 185.278 43.8874 185.278 39.6308C185.278 35.4016 181.856 32.5273 178.038 32.5273C174.205 32.5273 170.784 35.3742 170.784 39.6308ZM174.507 39.6308C174.507 37.4957 176.163 35.9217 178.038 35.9217C179.954 35.9217 181.555 37.523 181.555 39.6308C181.555 41.7523 179.954 43.3536 178.038 43.3536C176.163 43.3536 174.507 41.7797 174.507 39.6308Z" fill="white"/>
<path fill-rule="evenodd" clip-rule="evenodd" d="M23.4457 53.5979L39.2541 12.2087C41.3071 6.66553 42.1694 6.63815 40.4311 4.57143C37.7896 1.43713 29.6185 0 25.4713 0H21.6527C19.9418 0.0273738 18.2583 0.136869 16.5748 0.479042C13.6869 1.08127 10.8811 1.57399 8.37639 3.21642C4.62617 5.68007 5.68007 6.58341 7.03507 10.0051C11.6202 21.6253 15.9589 33.8888 20.5167 45.5774C20.8315 46.3849 23.3909 52.8999 23.4457 53.5979Z" fill="white"/>
<path fill-rule="evenodd" clip-rule="evenodd" d="M22.3507 59.3738C22.994 59.2096 31.3841 54.1317 32.1232 53.6801C33.7793 52.6809 35.2849 51.8597 36.9547 50.8469L56.4996 39.3088C59.9076 37.3105 60.3182 37.5706 60.3182 34.6826C60.3182 32.0547 58.2241 28.7425 56.6775 26.9221C54.7476 24.6364 53.0231 23.2267 50.4089 21.6253C48.876 20.7083 46.4123 19.6818 44.5372 19.6818C43.6339 19.6818 42.0462 20.0239 41.6356 20.5304C41.3482 20.8725 40.568 22.6381 40.3216 23.1309L32.6022 38.6929C30.864 42.1967 29.2079 45.509 27.4559 49.0128C26.5663 50.7784 25.7861 52.3524 24.8965 54.118C24.4448 55.0351 24.0342 55.8426 23.5962 56.7186C23.2677 57.3755 22.5013 58.7032 22.3507 59.3738Z" fill="white"/>
<path fill-rule="evenodd" clip-rule="evenodd" d="M18.2857 62.5081L49.8204 65.834C50.4636 65.9162 50.4089 65.9983 50.9564 65.6424C53.5843 63.9316 55.3225 59.4149 55.3225 55.473C55.3225 53.0778 55.4046 51.1206 54.3781 48.9033C52.5714 44.9615 50.2857 46.9735 47.343 48.438L22.4465 60.414C21.8306 60.7151 18.8058 62.0428 18.2857 62.5081Z" fill="white"/>
<path fill-rule="evenodd" clip-rule="evenodd" d="M29.071 80C32.4243 80 35.2849 77.2352 37.2831 75.5654C37.6116 75.2917 37.6664 75.1138 37.9401 74.8127C39.2814 73.266 41.1018 71.432 41.1018 69.0642C41.1018 67.5449 40.4311 67.7639 38.6929 67.408L17.9025 63.1925C16.8212 62.9735 15.3841 62.5902 14.3849 62.5081C14.5218 63.0145 16.5064 65.2318 16.9855 65.834L26.9906 78.0154C27.3191 78.4123 27.6065 78.7408 27.9076 79.1377C28.1813 79.5073 28.4961 80 29.071 80Z" fill="white"/>
<path fill-rule="evenodd" clip-rule="evenodd" d="M9.06073 78.7545C9.60821 79.1104 9.78614 79.343 10.5252 79.6305C11.0316 79.8221 11.7023 79.9453 12.4961 80H14.6313C17.6151 79.8221 21.0368 78.9187 22.1591 77.3037C22.337 77.0436 22.4876 76.7699 22.4328 76.4688C22.3781 76.154 12.8383 61.1121 12.3456 60.7836L9.06073 78.7545Z" fill="white"/>
<path fill-rule="evenodd" clip-rule="evenodd" d="M0 68.4346C0 70.2823 0.684346 71.2951 2.21728 72.3216C3.18905 72.9649 7.40462 75.5244 8.23952 73.0744C8.48589 72.349 8.60907 71.7742 8.85543 71.0351L12.5098 58.5937L1.62874 67.2575C1.31394 67.5175 1.17707 67.627 0.848589 67.8871C0.410607 68.2429 0.520103 68.2977 0 68.4346Z" fill="white"/>
<path fill-rule="evenodd" clip-rule="evenodd" d="M0.314803 60.9341C0.314803 62.3849 0.971774 64.8486 2.34047 64.8486C2.929 64.8486 3.53123 64.3422 3.91446 64.0684L11.0043 59.278C11.5381 58.9358 11.8939 58.7032 12.414 58.3473C12.852 58.0462 13.5774 57.663 13.7554 57.1839C13.2489 57.4303 12.6056 57.3482 11.8802 57.3482L7.67836 57.5261C2.6142 58.1009 0.314803 56.5269 0.314803 60.9341Z" fill="white"/>
<path fill-rule="evenodd" clip-rule="evenodd" d="M15.1651 56.8828L15.0009 56.7186C14.5766 56.6091 14.0838 56.1163 13.5637 55.6647C13.0847 55.2404 12.6604 54.8982 12.195 54.5287L9.36185 52.2019C8.23952 51.2712 7.44568 51.7639 6.13174 53.16C5.11891 54.2549 4.53037 55.3362 4.84517 56.7186L12.5098 57.0334C13.6459 57.0197 14.1249 57.1839 15.1651 57.1839V56.8828Z" fill="white"/>
<path fill-rule="evenodd" clip-rule="evenodd" d="M16.5612 58.7579L16.6159 58.799C16.6159 58.799 16.5475 58.7716 16.5612 58.7579ZM18.1352 58.5937C17.9572 58.7032 18.1215 58.6895 17.8067 58.7442C17.6561 58.7579 17.4919 58.7579 17.3413 58.7579V58.5937H18.1352ZM16.0958 57.663V58.5937C15.4525 59.0316 15.4799 58.7853 15.1651 59.2233C16.2874 59.4833 17.1497 60.5372 18.2857 60.633C18.9564 60.1813 19.2164 59.716 19.2164 58.5937H18.1352C18.5458 58.3336 19.846 58.2652 20.4756 57.9777C20.7357 56.8144 20.4072 56.089 19.6955 55.473C18.7511 55.7194 18.3815 56.5543 17.6561 57.0334C17.834 56.3627 18.4363 56.0616 18.8742 55.5962L20.1608 54.0633C19.5175 52.8452 18.4773 52.2566 16.7254 52.6535L16.219 57.3071C16.1506 57.6629 16.219 57.4576 16.0958 57.663Z" fill="white"/>
<path fill-rule="evenodd" clip-rule="evenodd" d="M15.0009 56.7186L15.1651 56.8828L16.0958 57.663C16.0958 56.2943 16.3285 51.7502 15.9453 50.9427C15.5894 50.5868 12.2772 50.5868 11.1001 52.3524C11.2506 52.941 11.5928 53.0231 11.9897 53.4885C12.9615 54.6382 14.6176 56.1437 15.0009 56.7186Z" fill="white"/>
</svg>
